<svg width="390" height="64" viewBox="0 0 390 64" fill="none" xmlns="http://www.w3.org/2000/svg">
<g filter="url(#filter0_i_338_4559)">
<rect width="390" height="64" fill="white"/>
</g>
<path d="M19 32H37" stroke="#222326" stroke-width="1.5" stroke-linecap="round" stroke-linejoin="round"/>
<path d="M19 26H37" stroke="#222326" stroke-width="1.5" stroke-linecap="round" stroke-linejoin="round"/>
<path d="M19 38H37" stroke="#222326" stroke-width="1.5" stroke-linecap="round" stroke-linejoin="round"/>
<path d="M370.667 39.5V37.8333C370.667 36.9493 370.315 36.1014 369.69 35.4763C369.065 34.8512 368.217 34.5 367.333 34.5H360.667C359.783 34.5 358.935 34.8512 358.31 35.4763C357.684 36.1014 357.333 36.9493 357.333 37.8333V39.5" stroke="#222326" stroke-width="1.5" stroke-linecap="round" stroke-linejoin="round"/>
<path d="M364 31.1667C365.841 31.1667 367.333 29.6743 367.333 27.8333C367.333 25.9924 365.841 24.5 364 24.5C362.159 24.5 360.667 25.9924 360.667 27.8333C360.667 29.6743 362.159 31.1667 364 31.1667Z" stroke="#222326" stroke-width="1.5" stroke-linecap="round" stroke-linejoin="round"/>
<g clip-path="url(#clip0_338_4559)">
<path d="M321.5 40.3333C321.96 40.3333 322.333 39.9602 322.333 39.5C322.333 39.0397 321.96 38.6666 321.5 38.6666C321.04 38.6666 320.667 39.0397 320.667 39.5C320.667 39.9602 321.04 40.3333 321.5 40.3333Z" stroke="#222326" stroke-width="1.5" stroke-linecap="round" stroke-linejoin="round"/>
<path d="M330.667 40.3333C331.127 40.3333 331.5 39.9602 331.5 39.5C331.5 39.0397 331.127 38.6666 330.667 38.6666C330.206 38.6666 329.833 39.0397 329.833 39.5C329.833 39.9602 330.206 40.3333 330.667 40.3333Z" stroke="#222326" stroke-width="1.5" stroke-linecap="round" stroke-linejoin="round"/>
<path d="M314.833 22.8334H318.167L320.4 33.9917C320.476 34.3754 320.685 34.72 320.99 34.9653C321.294 35.2106 321.676 35.3409 322.067 35.3334H330.167C330.558 35.3409 330.939 35.2106 331.244 34.9653C331.548 34.72 331.757 34.3754 331.833 33.9917L333.167 27H319" stroke="#222326" stroke-width="1.5" stroke-linecap="round" stroke-linejoin="round"/>
</g>
<path d="M283.167 37.8333C286.849 37.8333 289.833 34.8486 289.833 31.1667C289.833 27.4848 286.849 24.5 283.167 24.5C279.485 24.5 276.5 27.4848 276.5 31.1667C276.5 34.8486 279.485 37.8333 283.167 37.8333Z" stroke="#222326" stroke-width="1.5" stroke-linecap="round" stroke-linejoin="round"/>
<path d="M291.5 39.5L287.875 35.875" stroke="#222326" stroke-width="1.5" stroke-linecap="round" stroke-linejoin="round"/>
<path d="M173.979 25.9083C174.492 25.9083 174.885 25.966 175.156 26.0814C175.427 26.1967 175.664 26.3217 175.868 26.4562C175.984 26.5235 176.076 26.5764 176.144 26.6148C176.221 26.6437 176.294 26.6581 176.362 26.6581C176.459 26.6581 176.527 26.6052 176.565 26.4995C176.614 26.3938 176.653 26.2352 176.682 26.0237H177.016C177.006 26.1967 176.992 26.4034 176.972 26.6437C176.963 26.8744 176.953 27.1819 176.943 27.5664C176.943 27.9509 176.943 28.4555 176.943 29.0803H176.609C176.58 28.6093 176.473 28.1528 176.289 27.7106C176.115 27.2685 175.853 26.908 175.505 26.6292C175.166 26.3505 174.73 26.2111 174.197 26.2111C173.703 26.2111 173.291 26.3601 172.962 26.6581C172.642 26.9464 172.482 27.3309 172.482 27.8115C172.482 28.2345 172.589 28.5901 172.802 28.8785C173.015 29.1572 173.306 29.4216 173.674 29.6715C174.052 29.9118 174.478 30.1809 174.952 30.4789C175.437 30.7865 175.873 31.0941 176.26 31.4016C176.648 31.6996 176.953 32.0312 177.176 32.3965C177.398 32.7618 177.51 33.2039 177.51 33.723C177.51 34.3478 177.36 34.8668 177.059 35.2801C176.769 35.6838 176.376 35.9866 175.882 36.1885C175.388 36.3903 174.846 36.4912 174.255 36.4912C173.712 36.4912 173.281 36.4336 172.962 36.3182C172.642 36.2029 172.371 36.0827 172.148 35.9578C171.935 35.8232 171.77 35.7559 171.654 35.7559C171.557 35.7559 171.484 35.8088 171.436 35.9145C171.397 36.0203 171.363 36.1789 171.334 36.3903H171C171.019 36.1789 171.029 35.9337 171.029 35.655C171.039 35.3666 171.044 34.9918 171.044 34.5304C171.053 34.069 171.058 33.4875 171.058 32.7858H171.392C171.431 33.3817 171.538 33.9392 171.712 34.4583C171.896 34.9773 172.172 35.3955 172.54 35.7127C172.918 36.0203 173.417 36.174 174.037 36.174C174.366 36.174 174.672 36.1116 174.952 35.9866C175.233 35.8617 175.461 35.6646 175.635 35.3955C175.81 35.1263 175.897 34.7803 175.897 34.3574C175.897 33.9633 175.8 33.6172 175.606 33.3193C175.422 33.0213 175.161 32.7473 174.822 32.4974C174.492 32.2379 174.105 31.9736 173.659 31.7044C173.204 31.4161 172.778 31.1277 172.38 30.8393C171.983 30.551 171.664 30.2146 171.421 29.8301C171.189 29.4456 171.073 28.989 171.073 28.4603C171.073 27.874 171.208 27.3934 171.48 27.0185C171.76 26.6437 172.119 26.3649 172.555 26.1823C173 25.9997 173.475 25.9083 173.979 25.9083Z" fill="#5F6AFF"/>
<path d="M181.066 25V30.2482C181.308 29.6522 181.647 29.2389 182.083 29.0082C182.529 28.7679 182.999 28.6478 183.493 28.6478C183.88 28.6478 184.195 28.7007 184.437 28.8064C184.689 28.9025 184.897 29.0371 185.062 29.2101C185.237 29.3927 185.362 29.6282 185.44 29.9166C185.517 30.2049 185.556 30.5942 185.556 31.0844V34.9485C185.556 35.3522 185.634 35.6262 185.789 35.7703C185.953 35.9145 186.225 35.9866 186.602 35.9866V36.2894C186.428 36.2798 186.167 36.2702 185.818 36.2606C185.469 36.2413 185.13 36.2317 184.801 36.2317C184.462 36.2317 184.127 36.2413 183.798 36.2606C183.478 36.2702 183.241 36.2798 183.086 36.2894V35.9866C183.415 35.9866 183.648 35.9145 183.783 35.7703C183.919 35.6262 183.987 35.3522 183.987 34.9485V30.6807C183.987 30.402 183.963 30.1521 183.914 29.931C183.866 29.7003 183.759 29.5177 183.595 29.3831C183.44 29.2389 183.207 29.1668 182.897 29.1668C182.548 29.1668 182.233 29.2678 181.953 29.4696C181.681 29.6619 181.463 29.931 181.299 30.277C181.144 30.6231 181.066 31.0172 181.066 31.4593V34.9485C181.066 35.3522 181.134 35.6262 181.27 35.7703C181.405 35.9145 181.638 35.9866 181.967 35.9866V36.2894C181.802 36.2798 181.56 36.2702 181.24 36.2606C180.931 36.2413 180.611 36.2317 180.281 36.2317C179.942 36.2317 179.594 36.2413 179.235 36.2606C178.886 36.2702 178.625 36.2798 178.451 36.2894V35.9866C178.828 35.9866 179.095 35.9145 179.25 35.7703C179.414 35.6262 179.497 35.3522 179.497 34.9485V26.7302C179.497 26.2976 179.419 25.9804 179.264 25.7786C179.119 25.5671 178.848 25.4614 178.451 25.4614V25.1586C178.761 25.1874 179.061 25.2019 179.351 25.2019C179.671 25.2019 179.976 25.1874 180.267 25.1586C180.558 25.1202 180.824 25.0673 181.066 25Z" fill="#5F6AFF"/>
<path d="M190.827 28.6478C191.476 28.6478 192.052 28.7824 192.556 29.0515C193.06 29.3206 193.462 29.7436 193.762 30.3203C194.063 30.897 194.213 31.6516 194.213 32.5839C194.213 33.5163 194.063 34.2709 193.762 34.8476C193.462 35.4147 193.06 35.8328 192.556 36.102C192.052 36.3615 191.476 36.4912 190.827 36.4912C190.188 36.4912 189.611 36.3615 189.098 36.102C188.584 35.8328 188.178 35.4147 187.877 34.8476C187.587 34.2709 187.441 33.5163 187.441 32.5839C187.441 31.6516 187.587 30.897 187.877 30.3203C188.178 29.7436 188.584 29.3206 189.098 29.0515C189.611 28.7824 190.188 28.6478 190.827 28.6478ZM190.827 28.9361C190.323 28.9361 189.912 29.2245 189.592 29.8012C189.272 30.3683 189.112 31.2959 189.112 32.5839C189.112 33.872 189.272 34.7995 189.592 35.3666C189.912 35.9241 190.323 36.2029 190.827 36.2029C191.321 36.2029 191.728 35.9241 192.048 35.3666C192.377 34.7995 192.542 33.872 192.542 32.5839C192.542 31.2959 192.377 30.3683 192.048 29.8012C191.728 29.2245 191.321 28.9361 190.827 28.9361Z" fill="#5F6AFF"/>
<path d="M197.769 28.691V37.5294C197.769 37.9523 197.89 38.2358 198.132 38.38C198.374 38.5242 198.708 38.5963 199.135 38.5963V38.8991C198.912 38.8895 198.602 38.875 198.205 38.8558C197.807 38.8462 197.381 38.8414 196.926 38.8414C196.606 38.8414 196.291 38.8462 195.981 38.8558C195.671 38.875 195.434 38.8895 195.269 38.8991V38.5963C195.608 38.5963 195.846 38.529 195.981 38.3944C196.127 38.2695 196.199 38.0292 196.199 37.6735V30.4212C196.199 29.9887 196.127 29.6715 195.981 29.4696C195.836 29.2582 195.56 29.1524 195.153 29.1524V28.8496C195.463 28.8785 195.763 28.8929 196.054 28.8929C196.374 28.8929 196.679 28.8785 196.969 28.8496C197.26 28.8112 197.526 28.7583 197.769 28.691ZM200.079 28.6478C200.583 28.6478 201.033 28.7872 201.43 29.0659C201.837 29.335 202.157 29.734 202.389 30.2626C202.622 30.7913 202.738 31.4497 202.738 32.2379C202.738 32.8146 202.67 33.3625 202.535 33.8816C202.399 34.391 202.191 34.8428 201.91 35.2369C201.639 35.6214 201.295 35.9289 200.878 36.1596C200.462 36.3807 199.968 36.4912 199.396 36.4912C198.97 36.4912 198.592 36.3999 198.263 36.2173C197.943 36.0347 197.715 35.804 197.58 35.5252L197.725 35.3234C197.851 35.5637 198.025 35.7607 198.248 35.9145C198.481 36.0683 198.766 36.1452 199.105 36.1452C199.609 36.1452 200.002 35.9866 200.282 35.6694C200.573 35.3426 200.777 34.9053 200.893 34.3574C201.009 33.7999 201.067 33.1703 201.067 32.4686C201.067 31.6804 201.009 31.046 200.893 30.5654C200.777 30.0752 200.602 29.7195 200.37 29.4985C200.137 29.2678 199.856 29.1524 199.527 29.1524C199.091 29.1524 198.694 29.3254 198.335 29.6715C197.987 30.0175 197.773 30.5366 197.696 31.2286L197.551 30.9258C197.677 30.2049 197.967 29.6474 198.423 29.2533C198.887 28.8496 199.44 28.6478 200.079 28.6478Z" fill="#5F6AFF"/>
<path d="M206.297 28.691V37.5294C206.297 37.9523 206.418 38.2358 206.66 38.38C206.903 38.5242 207.237 38.5963 207.663 38.5963V38.8991C207.44 38.8895 207.13 38.875 206.733 38.8558C206.336 38.8462 205.91 38.8414 205.454 38.8414C205.135 38.8414 204.82 38.8462 204.51 38.8558C204.2 38.875 203.962 38.8895 203.798 38.8991V38.5963C204.137 38.5963 204.374 38.529 204.51 38.3944C204.655 38.2695 204.728 38.0292 204.728 37.6735V30.4212C204.728 29.9887 204.655 29.6715 204.51 29.4696C204.364 29.2582 204.088 29.1524 203.681 29.1524V28.8496C203.991 28.8785 204.292 28.8929 204.582 28.8929C204.902 28.8929 205.207 28.8785 205.498 28.8496C205.788 28.8112 206.055 28.7583 206.297 28.691ZM208.607 28.6478C209.111 28.6478 209.562 28.7872 209.959 29.0659C210.366 29.335 210.685 29.734 210.918 30.2626C211.15 30.7913 211.267 31.4497 211.267 32.2379C211.267 32.8146 211.199 33.3625 211.063 33.8816C210.928 34.391 210.719 34.8428 210.438 35.2369C210.167 35.6214 209.823 35.9289 209.407 36.1596C208.99 36.3807 208.496 36.4912 207.925 36.4912C207.498 36.4912 207.12 36.3999 206.791 36.2173C206.471 36.0347 206.244 35.804 206.108 35.5252L206.253 35.3234C206.379 35.5637 206.554 35.7607 206.777 35.9145C207.009 36.0683 207.295 36.1452 207.634 36.1452C208.138 36.1452 208.53 35.9866 208.811 35.6694C209.102 35.3426 209.305 34.9053 209.421 34.3574C209.537 33.7999 209.596 33.1703 209.596 32.4686C209.596 31.6804 209.537 31.046 209.421 30.5654C209.305 30.0752 209.131 29.7195 208.898 29.4985C208.666 29.2678 208.385 29.1524 208.055 29.1524C207.619 29.1524 207.222 29.3254 206.864 29.6715C206.515 30.0175 206.302 30.5366 206.224 31.2286L206.079 30.9258C206.205 30.2049 206.496 29.6474 206.951 29.2533C207.416 28.8496 207.968 28.6478 208.607 28.6478Z" fill="#5F6AFF"/>
<path d="M219 28.8496V29.138C218.816 29.1668 218.646 29.263 218.491 29.4264C218.336 29.5802 218.186 29.8493 218.041 30.2338L215.774 36.2606L215.425 36.6066L212.592 29.9598C212.408 29.585 212.229 29.3591 212.054 29.2822C211.889 29.1957 211.749 29.1524 211.633 29.1524V28.8496C211.875 28.8785 212.132 28.9025 212.403 28.9217C212.674 28.9313 212.955 28.9361 213.246 28.9361C213.575 28.9361 213.904 28.9265 214.234 28.9073C214.573 28.8881 214.888 28.8689 215.178 28.8496V29.1524C214.946 29.1524 214.738 29.1716 214.554 29.2101C214.379 29.2389 214.263 29.3302 214.205 29.484C214.156 29.6282 214.205 29.8781 214.35 30.2338L216.152 34.6313L216.05 34.6746L217.518 30.8105C217.663 30.426 217.721 30.1184 217.692 29.8877C217.663 29.6474 217.561 29.4696 217.387 29.3543C217.213 29.2293 216.956 29.1572 216.617 29.138V28.8496C216.782 28.8593 216.932 28.8689 217.067 28.8785C217.213 28.8785 217.353 28.8833 217.489 28.8929C217.624 28.8929 217.76 28.8929 217.896 28.8929C218.109 28.8929 218.307 28.8881 218.491 28.8785C218.685 28.8689 218.855 28.8593 219 28.8496ZM215.774 36.2606L215.251 37.6159C215.154 37.8562 215.052 38.058 214.946 38.2214C214.849 38.3848 214.742 38.5194 214.626 38.6251C214.481 38.7597 214.302 38.8558 214.089 38.9135C213.875 38.9712 213.662 39 213.449 39C213.246 39 213.052 38.9616 212.868 38.8847C212.694 38.8174 212.548 38.7116 212.432 38.5675C212.316 38.4233 212.258 38.2455 212.258 38.034C212.258 37.7841 212.34 37.5822 212.505 37.4284C212.669 37.2746 212.887 37.1977 213.159 37.1977C213.401 37.1977 213.604 37.2602 213.769 37.3852C213.934 37.5197 214.016 37.712 214.016 37.9619C214.016 38.1349 213.967 38.2839 213.871 38.4089C213.783 38.5338 213.667 38.6299 213.522 38.6972C213.551 38.7068 213.58 38.7116 213.609 38.7116C213.638 38.7116 213.662 38.7116 213.682 38.7116C213.953 38.7116 214.195 38.6203 214.408 38.4377C214.621 38.2647 214.801 37.9811 214.946 37.587L215.469 36.2029L215.774 36.2606Z" fill="#5F6AFF"/>
<defs>
<filter id="filter0_i_338_4559" x="0" y="0" width="390" height="64" filterUnits="userSpaceOnUse" color-interpolation-filters="sRGB">
<feFlood flood-opacity="0" result="BackgroundImageFix"/>
<feBlend mode="normal" in="SourceGraphic" in2="BackgroundImageFix" result="shape"/>
<feColorMatrix in="SourceAlpha" type="matrix" values="0 0 0 0 0 0 0 0 0 0 0 0 0 0 0 0 0 0 127 0" result="hardAlpha"/>
<feOffset dy="-1"/>
<feComposite in2="hardAlpha" operator="arithmetic" k2="-1" k3="1"/>
<feColorMatrix type="matrix" values="0 0 0 0 0 0 0 0 0 0 0 0 0 0 0 0 0 0 0.05 0"/>
<feBlend mode="normal" in2="shape" result="effect1_innerShadow_338_4559"/>
</filter>
<clipPath id="clip0_338_4559">
<rect width="20" height="20" fill="white" transform="translate(314 22)"/>
</clipPath>
</defs>
</svg>
