<svg width="100" height="20" viewBox="0 0 100 20" fill="none" xmlns="http://www.w3.org/2000/svg">
<path d="M96.6667 17.5V15.8333C96.6667 14.9493 96.3155 14.1014 95.6904 13.4763C95.0653 12.8512 94.2174 12.5 93.3334 12.5H86.6667C85.7827 12.5 84.9348 12.8512 84.3097 13.4763C83.6846 14.1014 83.3334 14.9493 83.3334 15.8333V17.5" stroke="#222326" stroke-width="1.5" stroke-linecap="round" stroke-linejoin="round"/>
<path d="M90 9.16667C91.8409 9.16667 93.3333 7.67428 93.3333 5.83333C93.3333 3.99238 91.8409 2.5 90 2.5C88.159 2.5 86.6666 3.99238 86.6666 5.83333C86.6666 7.67428 88.159 9.16667 90 9.16667Z" stroke="#222326" stroke-width="1.5" stroke-linecap="round" stroke-linejoin="round"/>
<g clip-path="url(#clip0_793_997)">
<path d="M47.5 18.3333C47.9602 18.3333 48.3333 17.9602 48.3333 17.5C48.3333 17.0397 47.9602 16.6666 47.5 16.6666C47.0397 16.6666 46.6666 17.0397 46.6666 17.5C46.6666 17.9602 47.0397 18.3333 47.5 18.3333Z" stroke="#222326" stroke-width="1.5" stroke-linecap="round" stroke-linejoin="round"/>
<path d="M56.6667 18.3333C57.1269 18.3333 57.5 17.9602 57.5 17.5C57.5 17.0397 57.1269 16.6666 56.6667 16.6666C56.2065 16.6666 55.8334 17.0397 55.8334 17.5C55.8334 17.9602 56.2065 18.3333 56.6667 18.3333Z" stroke="#222326" stroke-width="1.5" stroke-linecap="round" stroke-linejoin="round"/>
<path d="M40.8334 0.833374H44.1667L46.4 11.9917C46.4762 12.3754 46.685 12.72 46.9897 12.9653C47.2944 13.2106 47.6756 13.3409 48.0667 13.3334H56.1667C56.5578 13.3409 56.9391 13.2106 57.2438 12.9653C57.5485 12.72 57.7572 12.3754 57.8334 11.9917L59.1667 5.00004H45" stroke="#222326" stroke-width="1.5" stroke-linecap="round" stroke-linejoin="round"/>
</g>
<path d="M9.16667 15.8333C12.8486 15.8333 15.8333 12.8486 15.8333 9.16667C15.8333 5.48477 12.8486 2.5 9.16667 2.5C5.48477 2.5 2.5 5.48477 2.5 9.16667C2.5 12.8486 5.48477 15.8333 9.16667 15.8333Z" stroke="#222326" stroke-width="1.5" stroke-linecap="round" stroke-linejoin="round"/>
<path d="M17.5 17.5L13.875 13.875" stroke="#222326" stroke-width="1.5" stroke-linecap="round" stroke-linejoin="round"/>
<defs>
<clipPath id="clip0_793_997">
<rect width="20" height="20" fill="white" transform="translate(40)"/>
</clipPath>
</defs>
</svg>
